# xmcd CD database file
#
# Track frame offsets:
#	150
#	24024
#	49441
#	72748
#	89433
#	112567
#	131722
#	156676
#	184448
#	201073
#	228160
#	254452
#	281851
#	299151
#
# Disc length: 4215 seconds
#
# Revision: 6
# Processed by: cddbd v1.4PL0 Copyright (c) Steve Scherf et al.
# Submitted via: CDex 1.50beta10
#
DISCID=dd10750e
DTITLE=SPEED - Carry On my way
DYEAR=2001
DGENRE=New Age
TTITLE0=Carry On my way
TTITLE1=Aoi Regret
TTITLE2=Long Way Home(Album Edit)
TTITLE3=Deep Blue&Truth
TTITLE4=Luv Blanket
TTITLE5=Breakin' out to the morning
TTITLE6=Snow Kiss
TTITLE7=You are the moonlight
TTITLE8=Lookin' for Love
TTITLE9=Precious Time
TTITLE10=Two of us
TTITLE11=Eternity
TTITLE12=Confusion
TTITLE13=Don't be afraid
EXTD=YEAR: 2001
EXTT0=
EXTT1=
EXTT2=
EXTT3=
EXTT4=
EXTT5=
EXTT6=
EXTT7=
EXTT8=
EXTT9=
EXTT10=
EXTT11=
EXTT12=
EXTT13=
PLAYORDER=
